<?xml version="1.0" standalone="no"?>
<!DOCTYPE svg PUBLIC "-//W3C//DTD SVG 20010904//EN"
 "http://www.w3.org/TR/2001/REC-SVG-20010904/DTD/svg10.dtd">
<svg version="1.0" xmlns="http://www.w3.org/2000/svg"
 width="700.000000pt" height="700.000000pt" viewBox="0 0 700.000000 700.000000"
 preserveAspectRatio="xMidYMid meet">
<metadata>
Created by potrace 1.14, written by Peter Selinger 2001-2017
</metadata>
<g transform="translate(0.000000,700.000000) scale(0.100000,-0.100000)"
fill="#000000" stroke="none">
<path d="M3310 6989 c-654 -75 -1216 -533 -1419 -1157 -75 -228 -74 -221 -78
-895 -4 -527 -2 -615 12 -668 31 -124 102 -232 200 -306 78 -59 122 -81 207
-102 l71 -18 32 -89 c17 -49 42 -109 55 -134 30 -59 107 -179 132 -207 l20
-21 -294 -4 c-292 -3 -293 -3 -348 -29 -106 -49 -171 -128 -196 -238 -9 -38
-14 -130 -14 -288 l0 -231 -141 -47 c-78 -26 -176 -65 -218 -86 -197 -99 -341
-279 -403 -504 -22 -80 -23 -84 -26 -1022 l-3 -943 2601 0 2601 0 -3 943 c-4
936 -4 943 -26 1022 -45 164 -142 315 -265 415 -85 69 -187 119 -354 175
l-143 47 0 231 c0 158 -5 250 -14 288 -25 110 -90 189 -196 238 -55 26 -56 26
-348 29 l-294 4 20 21 c25 28 102 148 132 207 13 25 38 85 55 134 l32 89 71
18 c160 41 291 146 366 295 57 114 57 119 53 781 l-4 608 -25 110 c-88 376
-257 665 -543 923 -84 76 -249 189 -354 241 -287 144 -634 206 -951 170z m500
-247 c130 -31 203 -58 345 -127 402 -198 686 -566 782 -1015 23 -104 25 -145
30 -427 3 -172 3 -313 -1 -313 -3 0 -31 14 -62 31 -30 17 -81 39 -112 49 -31
10 -59 24 -63 31 -4 8 -16 66 -28 129 -27 143 -77 294 -142 430 -48 101 -166
288 -226 358 l-28 34 -245 -217 c-135 -120 -281 -246 -325 -280 -245 -190
-531 -344 -821 -441 -116 -39 -317 -91 -386 -100 l-48 -7 0 217 0 216 -110 0
-110 0 -2 -176 -3 -177 -42 -12 c-23 -7 -72 -29 -108 -49 -36 -20 -68 -36 -72
-36 -3 0 -3 141 0 313 4 262 9 328 26 411 128 619 608 1078 1229 1176 100 16
425 4 522 -18z m507 -1234 c83 -149 145 -326 179 -513 22 -118 32 -727 15
-898 -14 -139 -47 -259 -102 -370 -53 -105 -95 -163 -188 -259 l-74 -78 -647
0 -647 0 -74 78 c-93 96 -135 154 -188 259 -89 178 -114 338 -109 697 l3 220
130 27 c72 14 148 32 170 38 31 8 41 8 44 -2 2 -6 19 -27 37 -44 38 -39 82
-43 130 -14 35 21 60 78 50 115 -5 21 2 26 92 61 130 51 363 169 492 250 147
93 300 211 475 369 83 74 155 135 161 135 5 1 28 -32 51 -71z m-2057 -1103 c0
-233 -3 -315 -12 -315 -22 0 -108 62 -138 100 -51 65 -74 127 -74 205 -1 91
24 160 77 221 38 43 119 104 139 104 4 0 8 -142 8 -315z m2541 287 c178 -113
218 -339 89 -502 -30 -38 -116 -100 -138 -100 -9 0 -12 82 -12 315 0 173 4
315 8 315 4 0 28 -13 53 -28z m213 -1542 c14 -5 35 -24 46 -42 20 -32 20 -51
20 -1005 l0 -973 -115 0 -115 0 0 905 0 905 -1350 0 -1350 0 0 -905 0 -905
-115 0 -115 0 2 984 c3 968 3 984 23 1006 11 12 29 26 40 31 29 12 2998 11
3029 -1z m-384 -1230 l0 -790 -1130 0 -1130 0 0 790 0 790 1130 0 1130 0 0
-790z m-2938 -332 l3 -773 24 -60 c62 -154 185 -262 339 -294 33 -7 179 -11
382 -11 311 0 332 -1 386 -21 31 -12 75 -38 97 -58 47 -42 97 -108 97 -128 0
-11 -158 -13 -945 -13 l-945 0 0 803 c0 892 -1 869 67 1001 43 81 133 177 208
221 40 23 248 102 277 104 4 1 8 -347 10 -771z m3740 736 c56 -20 128 -50 158
-67 77 -43 168 -139 212 -223 69 -131 68 -109 68 -1001 l0 -803 -945 0 c-795
0 -945 2 -945 14 0 18 66 105 102 135 16 13 55 34 86 47 56 23 64 24 389 24
208 0 352 4 385 11 156 34 277 138 339 294 l24 60 3 773 c2 424 7 772 11 772
5 0 56 -16 113 -36z m-352 -1443 c0 -61 -57 -143 -123 -176 l-51 -25 -1405 0
c-1342 0 -1408 1 -1446 19 -70 32 -134 117 -135 179 l0 22 1580 0 c1556 0
1580 0 1580 -19z m-1276 -488 c-19 -32 -42 -81 -51 -110 l-17 -53 -236 0 -236
0 -17 53 c-9 29 -32 78 -51 110 l-35 57 339 0 339 0 -35 -57z"/>
<path d="M3998 4830 c-40 -31 -53 -73 -39 -121 29 -98 162 -106 206 -13 35 74
-17 154 -100 154 -27 0 -51 -7 -67 -20z"/>
<path d="M2940 4016 c0 -74 44 -195 100 -274 224 -320 696 -320 920 0 56 79
100 200 100 274 l0 44 -109 0 -108 0 -12 -58 c-22 -114 -113 -220 -220 -257
-57 -19 -165 -19 -222 0 -107 37 -198 143 -220 257 l-12 58 -108 0 -109 0 0
-44z"/>
<path d="M3335 1950 c-92 -308 -166 -562 -164 -563 2 -2 50 -17 107 -34 72
-22 105 -28 108 -20 29 80 331 1114 326 1118 -8 8 -181 59 -198 59 -6 0 -87
-252 -179 -560z"/>
<path d="M2761 2174 l-192 -255 194 -260 194 -259 92 67 c58 42 88 70 82 77
-4 6 -69 93 -144 193 l-136 181 144 192 144 193 -84 63 c-46 35 -88 64 -93 64
-5 0 -96 -115 -201 -256z"/>
<path d="M3943 2366 l-82 -63 144 -193 144 -192 -144 -191 -143 -191 90 -68
91 -68 194 259 194 260 -192 255 c-105 141 -197 256 -203 255 -6 0 -48 -29
-93 -63z"/>
</g>
</svg>
